<svg xmlns="http://www.w3.org/2000/svg" width="17.264" height="17.264" viewBox="0 0 17.264 17.264">
  <path id="Icon_fa-solid-phone-flip" data-name="Icon fa-solid-phone-flip" d="M5.558.829A1.344,1.344,0,0,0,3.96.046L.993.856A1.353,1.353,0,0,0,0,2.157,15.106,15.106,0,0,0,15.1,17.262a1.353,1.353,0,0,0,1.3-.995l.809-2.967a1.344,1.344,0,0,0-.782-1.6L13.2,10.354a1.344,1.344,0,0,0-1.561.391l-1.362,1.662A11.4,11.4,0,0,1,4.854,6.989L6.516,5.63a1.346,1.346,0,0,0,.391-1.561L5.558.832Z" transform="translate(0.002 0.001)"/>
</svg>
