<svg xmlns="http://www.w3.org/2000/svg" width="47.997" height="47.129" viewBox="0 0 47.997 47.129">
  <g id="Icon_material-twotone-saved-search" data-name="Icon material-twotone-saved-search" transform="translate(0 0)">
    <path id="패스_150" data-name="패스 150" d="M38.04,33.98a18.265,18.265,0,0,0,3.631-10.894A18.586,18.586,0,1,0,23.086,41.671,18.265,18.265,0,0,0,33.98,38.04L48.465,51.629,52.5,47.6,38.04,33.98ZM23.086,35.953A12.867,12.867,0,1,1,35.953,23.086,12.85,12.85,0,0,1,23.086,35.953Z" transform="translate(-4.5 -4.5)" fill="#fff"/>
    <path id="패스_151" data-name="패스 151" d="M18.668,9l-2.259,6.977H9.375l5.747,4.546-2.2,7.063,5.747-4.375,5.747,4.375-2.2-7.063,5.747-4.546H20.927Z" transform="translate(-0.082 -0.422)" fill="#fff"/>
  </g>
</svg>
