<svg xmlns="http://www.w3.org/2000/svg" xmlns:xlink="http://www.w3.org/1999/xlink" width="1920" height="750.838" viewBox="0 0 1920 750.838">
  <defs>
    <clipPath id="clip-path">
      <path id="패스_12" data-name="패스 12" d="M719.833,539.25c52.59-14.31,133.3-37.028,174.822-52.555-16.482-15.4-40.908-35.189-51.362-50.39-47.3,8.067-94.713,15.459-141.918,24.14-10.509,1.933-19.654,3.655-27.633,5.192-13.248-21.171-26.689-42.152-40.894-62.468-121.171,20.059-242.369,40.011-363.2,62.23-79.289,14.581-137.8,25.963-181.326,34.847,55.656,78.449,95.961,169.262,154.631,246.358a238.185,238.185,0,0,0,27.978,30.271c129.032-34.688,340.081-92.644,515.393-146.569-3.168-3.386-6.235-6.863-9.161-10.468C756.415,594.271,737.737,567.051,719.833,539.25Z" transform="translate(-88.327 -403.169)" fill="none"/>
    </clipPath>
  </defs>
  <g id="그룹_113" data-name="그룹 113" transform="translate(0 -225.699)">
    <g id="그룹_1" data-name="그룹 1" transform="translate(0 225.699)">
      <path id="패스_1" data-name="패스 1" d="M0,0V573.583L807.51,684.412l483.99,66.426L1920,635.072V0Z" fill="#e9f993"/>
      <path id="패스_2" data-name="패스 2" d="M0,0V513.142l1291.5,237.7L1920,647.271V0Z" fill="#438d3b"/>
    </g>
    <g id="그룹_58" data-name="그룹 58" transform="matrix(0.875, 0.485, -0.485, 0.875, 1738.72, 377.047)">
      <path id="패스_152" data-name="패스 152" d="M.524,28.793c.335-1.275,3.955-.7,6.795,1.074-2.568-5.333-2.141-9.856,1.164-12.9.629-.579,2.777-.176,4.628.848-1.4-5.072,2.1-8.312,6.257-10.983a4.834,4.834,0,0,1,3.855-.76c1.975.331,5,2.007,4.818,2.872.35-3.974,3.112-7,7.96-8.731A3.454,3.454,0,0,1,38.74.351a7.613,7.613,0,0,1,2.368,1.416,2.7,2.7,0,0,1,1.046,2.6,24.74,24.74,0,0,1-2.1,7.929,2.026,2.026,0,0,1-.025-.4c.1-2.26,8.3.922,8.314,3.224A12.2,12.2,0,0,1,45.169,23.6a3.408,3.408,0,0,1,2.752,2.52c.1,5.179-2.237,9.452-6.821,12.488,3.031,3.307,2.666,5.936.924,7.7s-4.718,2.869-6.77,4.472c-2.432,1.9-3.535,4.478-5.766,6.484S23.626,60.72,17.628,60.02C9.331,58.584-2.655,40.91.524,28.793Z" transform="translate(0 0)" fill="#b7cf94"/>
      <g id="그룹_57" data-name="그룹 57" transform="translate(14.177 28.9)">
        <path id="패스_153" data-name="패스 153" d="M3.353,30.837A225.794,225.794,0,0,0,15.01,2.233C15.747,0,12.226-.96,11.493,1.262A218.993,218.993,0,0,1,.2,29c-1.028,2.1,2.117,3.952,3.149,1.841Z" transform="translate(0 0)"/>
      </g>
    </g>
    <g id="그룹_97" data-name="그룹 97" transform="translate(1507.195 801.854) rotate(-42)">
      <g id="그룹_95" data-name="그룹 95" transform="translate(29.265 8.466)">
        <path id="패스_220" data-name="패스 220" d="M15.809.492C5.042-1.55.787,3.242.1,6.1c-.986,4.12,5.214,10.717,12.835,11.963s15.6-3.035,15.975-7.255C29.175,7.881,26.667,1.984,15.809.492Z" fill="#b7cf94"/>
        <g id="그룹_93" data-name="그룹 93" transform="translate(3.707 5.132)">
          <path id="패스_221" data-name="패스 221" d="M.085.8A2.88,2.88,0,0,0,.439,3.041a1.124,1.124,0,0,0,1.505.394,1.112,1.112,0,0,0,.395-1.5c-.015-.023-.144-.255-.1-.165.033.075-.048-.185-.049-.189.024.117.005.026,0-.043-.007-.3-.05.136.017-.152A1.119,1.119,0,0,0,1.438.029,1.118,1.118,0,0,0,.085.8Z" fill="#fff"/>
        </g>
        <g id="그룹_94" data-name="그룹 94" transform="translate(18.08 8.126)">
          <path id="패스_222" data-name="패스 222" d="M1.647,5.486A6.466,6.466,0,0,0,5.095,1.361,1.1,1.1,0,0,0,2.973.777,4.348,4.348,0,0,1,.537,3.586,1.109,1.109,0,0,0,.142,5.091a1.125,1.125,0,0,0,1.5.395Z" transform="translate(0 0)" fill="#fff"/>
        </g>
      </g>
      <g id="그룹_96" data-name="그룹 96" transform="translate(0 0)">
        <circle id="타원_6" data-name="타원 6" cx="4.162" cy="4.162" r="4.162" fill="#b7cf94"/>
        <ellipse id="타원_7" data-name="타원 7" cx="4.162" cy="3.699" rx="4.162" ry="3.699" transform="translate(1.85 20.346)" fill="#b7cf94"/>
      </g>
    </g>
    <g id="그룹_108" data-name="그룹 108" transform="translate(140 328.083)">
      <g id="그룹_55" data-name="그룹 55" transform="translate(0 150.165)">
        <path id="패스_3" data-name="패스 3" d="M782.006,579.135A63.974,63.974,0,0,1,774.488,571c-15.767-20.718-26.6-45.123-41.555-66.2,11.7-2.388,27.421-5.446,48.729-9.365,47.2-8.681,94.619-16.072,141.918-24.139,7.49,10.89,43.673,11.292,57.447,23.591,5.451,4.868,0,19.774-6.085,26.8C928.284,539.128,832.122,565.663,782.006,579.135Z" transform="translate(-172.825 -369.331)" fill="#6d2b07"/>
        <g id="그룹_2" data-name="그룹 2" transform="translate(0 68.824)">
          <path id="패스_4" data-name="패스 4" d="M626.475,433.028c-121.171,20.06-242.369,40.011-363.2,62.231-70.1,12.891-175.086,8.187-175.086,8.187a57.292,57.292,0,0,0,0,30.421c55.656,78.449,89.72,165.5,148.389,242.595a238.273,238.273,0,0,0,27.979,30.272c129.032-34.689,515.393-146.57,515.393-146.57a40.018,40.018,0,0,0,6.414-25.906C771.159,623.611,675.92,503.746,626.475,433.028Z" transform="translate(-86.166 -433.028)" fill="#6d2b07"/>
        </g>
        <g id="그룹_3" data-name="그룹 3" transform="translate(1.872 42.966)">
          <path id="패스_5" data-name="패스 5" d="M632.85,403.169c-121.171,20.059-242.369,40.011-363.2,62.23-79.289,14.581-137.8,25.963-181.326,34.847,55.656,78.449,95.961,169.262,154.631,246.358a238.185,238.185,0,0,0,27.978,30.271c129.032-34.688,340.081-92.644,515.393-146.569-3.168-3.386-6.235-6.863-9.161-10.468C722.568,552.571,682.294,473.887,632.85,403.169Z" transform="translate(-88.327 -403.169)" fill="#af694a"/>
        </g>
        <path id="패스_6" data-name="패스 6" d="M789.032,549.276a63.956,63.956,0,0,1-7.519-8.135c-15.767-20.718-26.6-45.123-41.555-66.2,11.7-2.387,27.421-5.445,48.729-9.364,47.2-8.681,94.62-16.073,141.918-24.14,10.454,15.2,34.88,34.989,51.362,50.39C935.31,509.268,839.148,535.8,789.032,549.276Z" transform="translate(-173.767 -365.33)" fill="#af694a"/>
        <g id="그룹_10" data-name="그룹 10" transform="translate(1.872 42.966)">
          <g id="그룹_9" data-name="그룹 9" clip-path="url(#clip-path)">
            <g id="그룹_4" data-name="그룹 4" transform="translate(62.408 168.891)">
              <path id="패스_7" data-name="패스 7" d="M163.436,810.931a3.043,3.043,0,0,1-1.188-5.845c109.588-46.414,227.655-72.043,341.837-96.83,124.375-27,252.987-54.917,370.731-109.781a3.042,3.042,0,1,1,2.569,5.514C759.025,659.141,630.077,687.132,505.376,714.2,391.469,738.928,273.683,764.5,164.621,810.689A3.062,3.062,0,0,1,163.436,810.931Z" transform="translate(-160.391 -598.191)" fill="#a5480b"/>
            </g>
            <g id="그룹_5" data-name="그룹 5" transform="translate(-31.056 145.559)">
              <path id="패스_8" data-name="패스 8" d="M55.507,765.285a3.043,3.043,0,0,1-.924-5.942C369.227,658.958,553.975,634.518,664.356,619.915c86.091-11.389,133.515-17.663,170.935-47.987a3.041,3.041,0,0,1,3.829,4.727c-38.751,31.405-86.779,37.758-173.966,49.292-117.312,15.519-294.593,38.972-608.72,139.192A3.024,3.024,0,0,1,55.507,765.285Z" transform="translate(-52.466 -571.249)" fill="#a5480b"/>
            </g>
            <g id="그룹_6" data-name="그룹 6" transform="translate(34.74 38.805)">
              <path id="패스_9" data-name="패스 9" d="M131.484,681.862a3.042,3.042,0,0,1-.008-6.085c13.112-.033,88.02-25.867,174.755-55.782,134.882-46.518,319.607-110.228,419.6-128.778,28.8-5.342,58.1-9.888,86.43-14.286,50.6-7.852,102.919-15.971,153.752-28.859a3.042,3.042,0,0,1,1.494,5.9c-51.11,12.959-103.576,21.1-154.314,28.975-28.29,4.389-57.544,8.93-86.251,14.255-99.552,18.467-284.031,82.091-418.731,128.546-94.4,32.558-162.6,56.079-176.722,56.115Z" transform="translate(-128.442 -447.978)" fill="#a5480b"/>
            </g>
            <g id="그룹_7" data-name="그룹 7" transform="translate(6.63 24.471)">
              <path id="패스_10" data-name="패스 10" d="M99.028,664.652a3.042,3.042,0,0,1-1.851-5.458c44.5-34.011,264.58-112.85,619.712-222,9.94-3.054,17.124-5.263,17.831-5.52a2.99,2.99,0,0,1,3.948,1.6,3.094,3.094,0,0,1-1.632,4.024c-.49.212-2.377.8-18.36,5.711-354.46,108.94-573.867,187.432-617.8,221.014A3.03,3.03,0,0,1,99.028,664.652Z" transform="translate(-95.983 -431.427)" fill="#a5480b"/>
            </g>
            <g id="그룹_8" data-name="그룹 8" transform="translate(-51.72 -7.951)">
              <path id="패스_11" data-name="패스 11" d="M31.644,591.625a3.042,3.042,0,0,1-.2-6.077c6.041-.4,10.069-.6,12.718-.7,1.167-4.043,11.463-12.4,112.145-40.993C275.08,510.12,479.6,459.726,764.2,394.064a3.042,3.042,0,1,1,1.367,5.93c-274.81,63.4-475.178,112.63-595.54,146.312C78.206,572,56.354,582.2,51.249,585.806a3.19,3.19,0,0,1,.629,2.336c-.373,2.574-2.8,2.638-4.107,2.672-1.89.049-6.314.166-15.922.8C31.78,591.623,31.711,591.625,31.644,591.625Z" transform="translate(-28.605 -393.987)" fill="#a5480b"/>
            </g>
          </g>
        </g>
        <path id="패스_13" data-name="패스 13" d="M671.833,475.054c-25.858,0-34.342-11.21-32.584-25.772a12.162,12.162,0,0,1,13.539-10.623c29.9,3.616,56.077-10.39,89.242-28.11,48.238-25.774,108.278-57.849,209.518-52.626a12.168,12.168,0,0,1-1.254,24.3c-94.5-4.871-152.264,39.575-197.843,63.925C721.01,462.952,703.8,475.054,671.833,475.054Z" transform="translate(-160.243 -354.065)" fill="#3b93b4"/>
        <path id="패스_14" data-name="패스 14" d="M420.549,774.6c71.906,33.248,107.421,13.853,115.776-1.388,12.052-21.981-43.321-41.105-94.467-63.475s-90.922-44.865-98.883-21.093C337.457,705.127,347.324,744.371,420.549,774.6Z" transform="translate(-120.403 -397.093)" fill="#f7bc80"/>
        <path id="패스_15" data-name="패스 15" d="M237.088,675.633c28.446,58.658,61.17,64.827,74.436,59.48,19.134-7.712-6.15-48.758-27.051-89.667s-34.5-75.969-51.958-64.985C220.409,588.076,206.229,618.207,237.088,675.633Z" transform="translate(-103.897 -383.685)" fill="#f7bc80"/>
        <path id="패스_16" data-name="패스 16" d="M489.264,415.111C345.59,411.482,300.683,482.035,297.877,520.2c-4.049,55.047,52.331,126.85,191.32,126.85,139.123,0,195.5-71.8,191.455-126.85-2.807-38.166-47.713-108.719-191.32-105.088Z" transform="translate(-114.506 -361.785)" fill="#3b93b4"/>
        <path id="패스_17" data-name="패스 17" d="M496.577,420.615c-129.417-3.269-169.866,60.282-172.394,94.66-4.339,58.986,36.414,105.135,148.751,105.135,125.195,0,199.684-55.551,196.037-105.135-2.529-34.378-42.978-97.929-172.334-94.659Z" transform="translate(-118.016 -362.524)" fill="#cfd7dc"/>
        <g id="그룹_11" data-name="그룹 11" transform="translate(126.894 226.93)">
          <path id="패스_18" data-name="패스 18" d="M247,615.721c-7.376,2.418-17.819,12.126-13.139,20.8,3.837,7.112,18.054,10.065,24.037,4.676,2.188-1.969-1.048-5.187-3.227-3.227-3.726,3.357-15.035.458-16.76-4.17-2.216-5.948,5.432-12.082,10.3-13.679,2.778-.911,1.588-5.318-1.213-4.4Z" transform="translate(-232.693 -615.596)" fill="#fff"/>
        </g>
        <g id="그룹_12" data-name="그룹 12" transform="translate(235.403 308.007)">
          <path id="패스_19" data-name="패스 19" d="M362.519,718.2c2.732-8.166,13.115-3.779,17.567-.061a18.936,18.936,0,0,1,6.557,11.123c.568,2.879,4.967,1.66,4.4-1.213a24.067,24.067,0,0,0-14.171-17.179c-7.183-3.156-15.993-2.135-18.754,6.117-.934,2.792,3.472,3.989,4.4,1.213Z" transform="translate(-357.99 -709.217)" fill="#fff"/>
        </g>
        <g id="그룹_13" data-name="그룹 13" transform="translate(136.533 273.022)">
          <path id="패스_20" data-name="패스 20" d="M248.352,677.8c2.731-8.166,13.115-3.78,17.567-.062a18.933,18.933,0,0,1,6.557,11.123c.568,2.879,4.968,1.66,4.4-1.213a24.065,24.065,0,0,0-14.171-17.179c-7.183-3.156-15.993-2.135-18.753,6.118-.934,2.791,3.472,3.989,4.4,1.213Z" transform="translate(-243.823 -668.819)" fill="#fff"/>
        </g>
        <g id="그룹_14" data-name="그룹 14" transform="translate(170.452 306.996)">
          <path id="패스_21" data-name="패스 21" d="M287.527,714.435c1.065-3.069,5.038-1.743,6.945-.365a8.036,8.036,0,0,1,3.287,5.616c.436,2.893,4.833,1.664,4.4-1.213a12.592,12.592,0,0,0-8.251-9.809c-4.4-1.611-9.188-.033-10.782,4.56-.965,2.78,3.442,3.974,4.4,1.212Z" transform="translate(-282.99 -708.05)" fill="#fff"/>
        </g>
        <g id="그룹_15" data-name="그룹 15" transform="translate(273.885 340.46)">
          <path id="패스_22" data-name="패스 22" d="M406.964,753.077c1.065-3.07,5.038-1.744,6.945-.365a8.033,8.033,0,0,1,3.287,5.615c.436,2.893,4.834,1.664,4.4-1.213a12.591,12.591,0,0,0-8.251-9.809c-4.4-1.611-9.188-.033-10.782,4.56-.965,2.78,3.442,3.975,4.4,1.213Z" transform="translate(-402.427 -746.691)" fill="#fff"/>
        </g>
        <g id="그룹_16" data-name="그룹 16" transform="translate(297.305 321.343)">
          <path id="패스_23" data-name="패스 23" d="M432.924,731.141a17.742,17.742,0,0,1,16.985.347c2.567,1.432,4.87-2.508,2.3-3.939a22.522,22.522,0,0,0-21.59-.348c-2.615,1.337-.309,5.276,2.3,3.94Z" transform="translate(-429.47 -724.617)" fill="#fff"/>
        </g>
        <g id="그룹_17" data-name="그룹 17" transform="translate(314.726 340.558)">
          <path id="패스_24" data-name="패스 24" d="M450.335,751.429c8.032,6.937,22.412,10.7,27.317-1.878,1.068-2.737-3.344-3.924-4.4-1.213-3.535,9.065-14.6,4.256-19.69-.135-2.213-1.911-5.454,1.3-3.227,3.227Z" transform="translate(-449.587 -746.804)" fill="#fff"/>
        </g>
        <g id="그룹_18" data-name="그룹 18" transform="translate(350.21 357.151)">
          <path id="패스_25" data-name="패스 25" d="M493.426,770.538a11.936,11.936,0,0,1,12.073,6.512c1.354,2.607,5.294.3,3.94-2.3a16.554,16.554,0,0,0-17.227-8.609c-2.9.4-1.664,4.8,1.213,4.4Z" transform="translate(-490.56 -765.965)" fill="#fff"/>
        </g>
        <path id="패스_26" data-name="패스 26" d="M410.558,717.092c6.983,1.4,9.782-1.679,10.247-3.53.671-2.671-3.311-7-8.254-7.867s-10.159,1.86-10.434,4.6C401.925,712.194,403.513,716.045,410.558,717.092Z" transform="translate(-128.498 -400.716)"/>
        <path id="패스_27" data-name="패스 27" d="M258.747,699.857c5.378,4.669,9.335,3.37,10.654,1.99,1.9-1.991.579-7.724-3.293-10.917s-9.752-3.4-11.344-1.153C253.659,691.336,253.138,695.467,258.747,699.857Z" transform="translate(-108.661 -398.405)"/>
        <path id="패스_28" data-name="패스 28" d="M271.042,661.215c5.378,4.669,9.335,3.37,10.654,1.991,1.9-1.991.578-7.725-3.293-10.917s-9.752-3.4-11.345-1.153C265.954,652.694,265.433,656.825,271.042,661.215Z" transform="translate(-110.309 -393.227)"/>
        <path id="패스_29" data-name="패스 29" d="M443.93,782.079c6.983,1.4,9.782-1.678,10.247-3.53.671-2.67-3.311-7-8.254-7.867s-10.159,1.86-10.434,4.6C435.3,777.182,436.885,781.032,443.93,782.079Z" transform="translate(-132.969 -409.424)"/>
        <path id="패스_30" data-name="패스 30" d="M368.626,695.967c3.269.657,4.579-.786,4.8-1.652.314-1.25-1.549-3.279-3.864-3.683s-4.755.871-4.884,2.153C364.585,693.673,365.328,695.476,368.626,695.967Z" transform="translate(-123.482 -398.709)"/>
        <path id="패스_31" data-name="패스 31" d="M375.651,736.365c3.268.657,4.579-.786,4.8-1.653.314-1.25-1.55-3.278-3.864-3.682s-4.756.87-4.884,2.153C371.61,734.072,372.353,735.874,375.651,736.365Z" transform="translate(-124.423 -404.122)"/>
        <path id="패스_32" data-name="패스 32" d="M412.535,729.339c3.269.657,4.579-.786,4.8-1.652.314-1.251-1.55-3.279-3.864-3.683s-4.756.871-4.885,2.153C408.495,727.046,409.238,728.848,412.535,729.339Z" transform="translate(-129.365 -403.181)"/>
        <path id="패스_33" data-name="패스 33" d="M242.523,603.7c2.224,2.485,4.138,2.114,4.831,1.55,1-.812.722-3.553-.889-5.264s-4.329-2.151-5.2-1.2C240.661,599.441,240.176,601.329,242.523,603.7Z" transform="translate(-106.881 -386.347)"/>
        <path id="패스_34" data-name="패스 34" d="M268.87,719.622c2.223,2.485,4.137,2.114,4.831,1.55,1-.813.722-3.553-.889-5.264s-4.329-2.151-5.2-1.2C267.008,715.365,266.523,717.253,268.87,719.622Z" transform="translate(-110.411 -401.88)"/>
        <path id="패스_35" data-name="패스 35" d="M309.913,746.594c2.915,1.619,4.6.642,5.072-.118.679-1.1-.481-3.594-2.563-4.682s-4.8-.615-5.308.568C306.759,743.183,306.919,745.125,309.913,746.594Z" transform="translate(-115.752 -405.493)"/>
        <path id="패스_36" data-name="패스 36" d="M310.8,731.551c1.817,2.8,3.765,2.723,4.537,2.272,1.113-.65,1.258-3.4-.072-5.338s-3.949-2.789-4.955-1.984C309.613,727.059,308.845,728.851,310.8,731.551Z" transform="translate(-116.098 -403.485)"/>
        <path id="패스_37" data-name="패스 37" d="M233.579,654.379c1.94,2.711,3.882,2.551,4.633,2.067,1.083-.7,1.105-3.454-.31-5.33s-4.07-2.61-5.039-1.761C232.191,649.945,231.5,651.769,233.579,654.379Z" transform="translate(-105.731 -393.142)"/>
        <path id="패스_38" data-name="패스 38" d="M286.212,678.858c1.817,2.8,3.765,2.723,4.537,2.272,1.113-.65,1.258-3.4-.072-5.337s-3.949-2.789-4.955-1.985C285.023,674.367,284.255,676.159,286.212,678.858Z" transform="translate(-112.803 -396.425)"/>
        <path id="패스_39" data-name="패스 39" d="M496.845,794.326c3.268.658,4.579-.786,4.8-1.652.314-1.25-1.55-3.278-3.864-3.682s-4.756.87-4.884,2.153C492.8,792.033,493.546,793.836,496.845,794.326Z" transform="translate(-140.662 -411.889)"/>
        <path id="패스_40" data-name="패스 40" d="M470.5,778.519c3.269.657,4.579-.786,4.8-1.653.313-1.25-1.55-3.278-3.864-3.682s-4.756.87-4.885,2.153C466.457,776.226,467.2,778.028,470.5,778.519Z" transform="translate(-137.132 -409.771)"/>
        <path id="패스_41" data-name="패스 41" d="M531.973,771.493c3.269.657,4.579-.786,4.8-1.652.314-1.25-1.549-3.279-3.864-3.683s-4.755.871-4.884,2.154C527.932,769.2,528.675,771,531.973,771.493Z" transform="translate(-145.369 -408.829)"/>
        <path id="패스_42" data-name="패스 42" d="M538.4,499.733c.374,5.443.623,10.954.727,16.421.224,11.638,15.732,20.3,34.345,19.04l.38-.026a375.256,375.256,0,0,0,73.54-12.736c10.1-2.767,17.851-8.343,20.5-14.981a41.458,41.458,0,0,0-2.253-32.975c-3.526-6.216-11.968-10.687-22.346-12.055a375.241,375.241,0,0,0-74.589-2.617l-.38.027c-18.612,1.285-32.8,11.973-31.437,23.533C537.522,488.8,538.025,494.29,538.4,499.733Z" transform="translate(-146.545 -367.684)" fill="#a5480b"/>
        <path id="패스_43" data-name="패스 43" d="M522.588,485.682c.373,5.443.623,10.955.727,16.421.222,11.639,15.731,20.3,34.344,19.04l.38-.025a375.262,375.262,0,0,0,73.541-12.736c10.1-2.767,17.85-8.343,20.5-14.981a41.461,41.461,0,0,0-2.252-32.976c-3.526-6.216-11.968-10.686-22.346-12.055a375.24,375.24,0,0,0-74.589-2.616l-.38.026c-18.612,1.285-32.8,11.973-31.437,23.534C521.715,474.745,522.218,480.239,522.588,485.682Z" transform="translate(-144.427 -365.802)" fill="#c66c39"/>
        <g id="그룹_19" data-name="그룹 19" transform="translate(463.653 111.42)">
          <path id="패스_44" data-name="패스 44" d="M656.394,485.037c4.648,16.66-21.469,23.806-33.194,26.058-2.881.553-1.661,4.952,1.213,4.4,14.5-2.785,41.943-11.735,36.381-31.671-.787-2.825-5.192-1.625-4.4,1.212Z" transform="translate(-621.555 -482.214)"/>
        </g>
        <g id="그룹_20" data-name="그룹 20" transform="translate(495.163 95.387)">
          <path id="패스_45" data-name="패스 45" d="M658.262,467.127a11.364,11.364,0,0,0,4.149,3.783,2.334,2.334,0,0,0,3.122-.818,2.305,2.305,0,0,0-.818-3.121c-.281-.146-.558-.3-.824-.473-.132-.087-.264-.175-.391-.27.229.173-.114-.1-.184-.165a6.191,6.191,0,0,1-1.115-1.238,2.339,2.339,0,0,0-3.122-.818,2.3,2.3,0,0,0-.818,3.122Z" transform="translate(-657.941 -463.701)"/>
        </g>
        <g id="그룹_21" data-name="그룹 21" transform="translate(396.263 81.148)">
          <path id="패스_46" data-name="패스 46" d="M547.658,505.789a318.261,318.261,0,0,1,76.2-54.319c2.616-1.336.309-5.275-2.3-3.94a322.442,322.442,0,0,0-77.127,55.032c-2.119,2.041,1.11,5.265,3.227,3.227Z" transform="translate(-543.739 -447.258)" fill="#a5480b"/>
        </g>
        <g id="그룹_22" data-name="그룹 22" transform="translate(415.779 90.006)">
          <path id="패스_47" data-name="패스 47" d="M569.594,510.8l70.59-48.962c2.4-1.663.119-5.62-2.3-3.94l-70.591,48.962c-2.4,1.663-.118,5.619,2.3,3.94Z" transform="translate(-566.273 -457.487)" fill="#a5480b"/>
        </g>
        <g id="그룹_23" data-name="그룹 23" transform="translate(449.831 110.035)">
          <path id="패스_48" data-name="패스 48" d="M608.9,513.276l39.63-28.3c2.369-1.692.093-5.652-2.3-3.939l-39.63,28.3c-2.369,1.692-.093,5.652,2.3,3.94Z" transform="translate(-605.594 -480.614)" fill="#a5480b"/>
        </g>
        <g id="그룹_24" data-name="그룹 24" transform="translate(424.648 89.25)">
          <path id="패스_49" data-name="패스 49" d="M579.816,466.733a57.355,57.355,0,0,1,10.487-5.965c2.684-1.173.364-5.106-2.3-3.94a57.378,57.378,0,0,0-10.486,5.965c-2.366,1.7-.09,5.657,2.3,3.94Z" transform="translate(-576.515 -456.614)" fill="#a5480b"/>
        </g>
        <g id="그룹_30" data-name="그룹 30" transform="translate(208.177)">
          <path id="패스_50" data-name="패스 50" d="M380.239,509.245l187.1-96.7a10.234,10.234,0,0,0-.97-18.622c-7.1-2.777-33.424,6.083-62.072,20.89l-33.817,17.477L539.7,373.261a10.234,10.234,0,0,0-5.173-17.915c-7.542-1.093-31.169,13.514-55.707,34.439l-112.8,96.2c-.412.352-.818.7-1.227,1.055-15.426,13.272-32.6,29.431-32.81,43.759Z" transform="translate(-327.279 -353.787)" fill="#b7cf94"/>
          <path id="패스_51" data-name="패스 51" d="M378.826,520.135,576.145,446.51a10.234,10.234,0,0,0,1.264-18.6c-6.713-3.605-33.911,2.043-64.125,13.316L477.62,454.529,553.408,404.2a10.234,10.234,0,0,0-2.993-18.405c-7.358-1.987-32.562,9.69-59.427,27.53l-123.5,82.013c-.451.3-.9.6-1.344.9-16.9,11.332-37.669,27.24-39.592,41.441Z" transform="translate(-326.552 -357.846)" fill="#b7cf94"/>
          <g id="그룹_25" data-name="그룹 25" transform="translate(9.413 72.312)">
            <path id="패스_52" data-name="패스 52" d="M586.323,437.222c-83.062,32.525-163.476,71.368-247.348,101.89-2.737,1-1.555,5.407,1.213,4.4,83.874-30.523,164.285-69.365,247.348-101.89,2.7-1.059,1.527-5.473-1.213-4.4Z" transform="translate(-337.422 -437.055)" fill="#70ae85"/>
          </g>
          <g id="그룹_26" data-name="그룹 26" transform="translate(16.926)">
            <path id="패스_53" data-name="패스 53" d="M536.3,354.131c-30.96,26.3-61.7,52.9-93.01,78.782-30.18,24.945-61.506,48.652-96.056,67.264-2.587,1.393-.285,5.334,2.3,3.94,34.078-18.357,65.034-41.68,94.853-66.223,32.075-26.4,63.479-53.64,95.137-80.536,2.241-1.9-1-5.118-3.227-3.227Z" transform="translate(-346.097 -353.555)" fill="#70ae85"/>
          </g>
          <g id="그룹_27" data-name="그룹 27" transform="translate(42.745 61.913)">
            <path id="패스_54" data-name="패스 54" d="M506.852,425.4q-65.642,40.342-129.9,82.875c-2.439,1.613-.156,5.568,2.3,3.94q64.248-42.529,129.9-82.876c2.5-1.535.208-5.484-2.3-3.939Z" transform="translate(-375.911 -425.048)" fill="#70ae85"/>
          </g>
          <g id="그룹_28" data-name="그룹 28" transform="translate(133.904 88.454)">
            <path id="패스_55" data-name="패스 55" d="M517.02,455.871a282.656,282.656,0,0,0-34.739,16.916c-2.544,1.465-.249,5.409,2.3,3.94a273.838,273.838,0,0,1,33.649-16.456c2.686-1.09,1.511-5.506-1.213-4.4Z" transform="translate(-481.173 -455.694)" fill="#70ae85"/>
          </g>
          <g id="그룹_29" data-name="그룹 29" transform="translate(110.446 116.393)">
            <path id="패스_56" data-name="패스 56" d="M462.363,488.242l-7.137,3.765c-2.6,1.371-.3,5.311,2.3,3.94l7.138-3.766c2.6-1.371.294-5.311-2.3-3.939Z" transform="translate(-454.086 -487.956)" fill="#2c9582"/>
          </g>
        </g>
        <path id="패스_57" data-name="패스 57" d="M351.737,530.583c-.866-1.4,2.779-4.185,6.837-5.224-7.045-2.28-10.77-6.571-10.668-12.187.019-1.07,2.239-2.666,4.762-3.457-5.8-3.109-5.711-9.078-4.54-15.146a6.047,6.047,0,0,1,2.64-4.146c2-1.5,6.138-2.8,6.76-1.882-3.3-3.747-3.655-8.862-1.033-14.744a4.326,4.326,0,0,1,2.486-2.364,9.487,9.487,0,0,1,3.326-.92,3.38,3.38,0,0,1,3.254,1.293,30.961,30.961,0,0,1,5.362,8.748,2.449,2.449,0,0,1-.384-.324c-1.962-2.04,8-6.721,10.1-4.743a15.263,15.263,0,0,1,4.945,10.2c1.6-1.224,3.949-.966,4.657-.315,4.773,4.383,6.626,10.185,5.417,16.957,5.61.111,7.675,2.711,7.769,5.812s-1.477,6.748-1.8,9.99c-.379,3.842,1,7.067.892,10.817s-1.936,8.285-7.747,13.111C386.308,548.329,359.96,543.922,351.737,530.583Z" transform="translate(-121.181 -369.225)" fill="#2b9582"/>
        <g id="그룹_31" data-name="그룹 31" transform="translate(253.201 136.316)">
          <path id="패스_58" data-name="패스 58" d="M398.6,547.348a282.765,282.765,0,0,0-15.825-35.25c-1.385-2.591-5.325-.289-3.94,2.3a273.728,273.728,0,0,1,15.365,34.16c1.01,2.731,5.422,1.55,4.4-1.213Z" transform="translate(-378.542 -510.962)"/>
        </g>
        <path id="패스_59" data-name="패스 59" d="M423.252,480.994c.725-1.482,5.023.115,8.068,2.992-1.833-7.174-.194-12.614,4.609-15.528.914-.555,3.449.469,5.465,2.182-.469-6.567,4.626-9.677,10.382-11.927a6.05,6.05,0,0,1,4.915.02c2.341.893,5.643,3.7,5.2,4.71,1.409-4.787,5.542-7.821,11.915-8.745a4.323,4.323,0,0,1,3.326.84,9.511,9.511,0,0,1,2.553,2.321,3.379,3.379,0,0,1,.643,3.441,30.956,30.956,0,0,1-4.534,9.206,2.514,2.514,0,0,1,.068-.5c.678-2.749,9.957,3.179,9.4,6a15.265,15.265,0,0,1-5.983,9.627c1.891.7,2.924,2.823,2.753,3.77-1.158,6.376-5.074,11.041-11.445,13.634,2.9,4.8,1.806,7.937-.766,9.672s-6.494,2.355-9.407,3.815c-3.45,1.731-5.44,4.619-8.67,6.53s-8.039,2.786-15.222.45C426.706,519.7,416.365,495.068,423.252,480.994Z" transform="translate(-131.032 -367.099)" fill="#2b9582"/>
        <g id="그룹_32" data-name="그룹 32" transform="translate(301.318 120.539)">
          <path id="패스_60" data-name="패스 60" d="M438.5,527.877a277.03,277.03,0,0,0,21.018-31.717c1.452-2.557-2.488-4.859-3.94-2.3a277,277,0,0,1-21.017,31.716c-1.786,2.33,2.175,4.605,3.939,2.3Z" transform="translate(-434.104 -492.744)"/>
        </g>
        <path id="패스_61" data-name="패스 61" d="M462.87,535.41c-79.784-1.438-104.733,26.5-106.292,41.609-2.25,21.8,50.058,50.227,106.292,50.227s108.541-28.43,106.292-50.227C567.6,561.907,542.654,533.972,462.87,535.41Z" transform="translate(-122.389 -377.915)" fill="#fff"/>
        <path id="패스_62" data-name="패스 62" d="M568.255,531.9c-79.784-1.438-104.732,26.5-106.292,41.609-2.249,21.8,50.058,50.227,106.292,50.227S676.8,595.3,674.546,573.506C672.987,558.394,648.039,530.459,568.255,531.9Z" transform="translate(-136.509 -377.444)" fill="#fff"/>
        <path id="패스_63" data-name="패스 63" d="M596.826,605.422c39.839,1.014,52.3-18.677,53.075-29.329,1.123-15.364-25-35.4-53.075-35.4s-54.2,20.04-53.075,35.4C544.529,586.745,556.987,606.437,596.826,605.422Z" transform="translate(-147.472 -378.629)" fill="#f4b044"/>
        <path id="패스_64" data-name="패스 64" d="M458.069,586.1c39.838,1.013,52.3-18.678,53.075-29.33,1.122-15.364-25-35.4-53.075-35.4s-54.2,20.039-53.075,35.4C405.772,567.424,418.23,587.116,458.069,586.1Z" transform="translate(-128.881 -376.04)" fill="#f4b044"/>
        <g id="그룹_39" data-name="그룹 39" transform="translate(249.451 183.212)">
          <g id="그룹_33" data-name="그룹 33" transform="translate(13.73 25.675)">
            <path id="패스_65" data-name="패스 65" d="M390.714,598.653l2.285,2.9a2.3,2.3,0,0,0,3.227,0,2.337,2.337,0,0,0,0-3.227l-2.285-2.9a2.3,2.3,0,0,0-3.227,0,2.339,2.339,0,0,0,0,3.227Z" transform="translate(-390.066 -594.762)" fill="#f4b044"/>
          </g>
          <g id="그룹_34" data-name="그룹 34">
            <path id="패스_66" data-name="패스 66" d="M378.638,577.709a9.524,9.524,0,0,1,7.211-8.12c2.852-.7,1.644-5.1-1.212-4.4a13.909,13.909,0,0,0-10.4,11.307c-.412,2.872,3.984,4.114,4.4,1.213Z" transform="translate(-374.212 -565.114)" fill="#f4b044"/>
          </g>
          <g id="그룹_35" data-name="그룹 35" transform="translate(136.751 37.89)">
            <path id="패스_67" data-name="패스 67" d="M533.678,613.412c16.943,6.083,34.016,11.838,52.226,11.631,2.935-.033,2.943-4.6,0-4.563-17.805.2-34.462-5.526-51.012-11.468-2.769-.994-3.961,3.414-1.213,4.4Z" transform="translate(-532.12 -608.867)" fill="#f4b044"/>
          </g>
          <g id="그룹_36" data-name="그룹 36" transform="translate(48.053 34.098)">
            <path id="패스_68" data-name="패스 68" d="M431.9,616.071c17.977-.125,36.043-.545,53.045-7.022,2.717-1.035,1.538-5.449-1.213-4.4-16.635,6.338-34.248,6.737-51.832,6.86-2.936.021-2.942,4.584,0,4.563Z" transform="translate(-429.699 -604.488)" fill="#f4b044"/>
          </g>
          <g id="그룹_37" data-name="그룹 37" transform="translate(92.164 45.848)">
            <path id="패스_69" data-name="패스 69" d="M482.839,623.973a278.479,278.479,0,0,0,29.456-1.337c2.885-.327,2.918-4.894,0-4.564a278.051,278.051,0,0,1-29.456,1.337c-2.935.021-2.942,4.584,0,4.564Z" transform="translate(-480.635 -618.055)" fill="#f4b044"/>
          </g>
          <g id="그룹_38" data-name="그룹 38" transform="translate(258.728 14.34)">
            <path id="패스_70" data-name="패스 70" d="M676.861,590.62l6.432-5.072a2.3,2.3,0,0,0,0-3.227,2.339,2.339,0,0,0-3.227,0l-6.432,5.072a2.3,2.3,0,0,0,0,3.227,2.339,2.339,0,0,0,3.227,0Z" transform="translate(-672.97 -581.673)" fill="#f4b044"/>
          </g>
        </g>
        <path id="패스_71" data-name="패스 71" d="M449.391,556.79c8.937-1.895,10.667-6.949,10.273-9.365-.567-3.486-7.458-6.564-13.719-5.069s-11.018,7.353-9.95,10.72C436.735,555.409,440.562,559.138,449.391,556.79Z" transform="translate(-133.019 -378.8)" fill="#fff"/>
        <path id="패스_72" data-name="패스 72" d="M581.184,569.879c7.559-1.6,9.023-5.878,8.69-7.922-.48-2.948-6.309-5.552-11.605-4.288s-9.32,6.221-8.416,9.068C570.478,568.711,573.715,571.864,581.184,569.879Z" transform="translate(-150.957 -380.86)" fill="#fff"/>
        <path id="패스_73" data-name="패스 73" d="M515.943,602.924c6.983,1.406,9.782-1.678,10.247-3.53.671-2.67-3.311-7-8.254-7.867s-10.158,1.86-10.434,4.6C507.31,598.027,508.9,601.877,515.943,602.924Z" transform="translate(-142.618 -385.419)" fill="#a5480b"/>
        <path id="패스_74" data-name="패스 74" d="M505.4,518.616c6.982,1.4,9.782-1.678,10.247-3.53.67-2.67-3.311-7-8.255-7.867s-10.158,1.86-10.434,4.6C496.772,513.719,498.36,517.569,505.4,518.616Z" transform="translate(-141.206 -374.123)" fill="#a5480b"/>
        <path id="패스_75" data-name="패스 75" d="M640.49,614.79c6.625-2.616,7.3-6.726,6.683-8.533-.889-2.606-6.585-4.078-11.205-2.117s-7.515,7.083-6.258,9.532C630.582,615.37,634.007,617.739,640.49,614.79Z" transform="translate(-158.955 -387.01)" fill="#a5480b"/>
        <path id="패스_76" data-name="패스 76" d="M540.669,507.563c8.755,1.755,12.245-2,12.818-4.261.826-3.261-4.185-8.579-10.383-9.662s-12.716,2.219-13.047,5.567C529.829,501.528,531.838,506.244,540.669,507.563Z" transform="translate(-145.64 -372.297)" fill="#a5480b"/>
        <path id="패스_77" data-name="패스 77" d="M421.233,597.141c8.755,1.755,12.245-2,12.818-4.26.825-3.261-4.186-8.58-10.384-9.663s-12.716,2.219-13.046,5.567C410.393,591.105,412.4,595.822,421.233,597.141Z" transform="translate(-129.637 -384.299)" fill="#a5480b"/>
        <g id="그룹_40" data-name="그룹 40" transform="translate(584.477 51.535)">
          <path id="패스_78" data-name="패스 78" d="M762.579,417.649c14.2,5.961,27.08,14.332,39.729,23.022,2.427,1.667,4.712-2.286,2.3-3.94-13.007-8.935-26.229-17.357-40.819-23.482-2.7-1.135-3.884,3.279-1.213,4.4Z" transform="translate(-761.073 -413.063)"/>
        </g>
        <g id="그룹_41" data-name="그룹 41" transform="translate(542.166 72.221)">
          <path id="패스_79" data-name="패스 79" d="M713.736,441.525c11.176,4.514,22.741,8.4,32.919,14.981,2.473,1.6,4.764-2.349,2.3-3.94-10.5-6.786-22.485-10.787-34.009-15.441-2.722-1.1-3.906,3.313-1.213,4.4Z" transform="translate(-712.216 -436.951)"/>
        </g>
        <g id="그룹_42" data-name="그룹 42" transform="translate(525.155 78.915)">
          <path id="패스_80" data-name="패스 80" d="M694.079,449.265c14.2,5.961,27.08,14.332,39.729,23.022,2.427,1.667,4.711-2.286,2.3-3.94-13.007-8.936-26.229-17.357-40.819-23.482-2.7-1.135-3.885,3.279-1.213,4.4Z" transform="translate(-692.573 -444.679)"/>
        </g>
        <g id="그룹_43" data-name="그룹 43" transform="translate(622.352 32.531)">
          <path id="패스_81" data-name="패스 81" d="M805.926,395.37a91.79,91.79,0,0,1,20.127,15.239c2.078,2.08,5.306-1.146,3.227-3.228a96.219,96.219,0,0,0-21.05-15.951c-2.564-1.439-4.867,2.5-2.3,3.94Z" transform="translate(-804.808 -391.12)" fill="#fff"/>
        </g>
        <g id="그룹_44" data-name="그룹 44" transform="translate(648.101 29.18)">
          <path id="패스_82" data-name="패스 82" d="M835.707,391.442a42.193,42.193,0,0,1,10.438,7.143c2.143,2,5.377-1.215,3.228-3.227a46.249,46.249,0,0,0-11.362-7.856c-2.63-1.281-4.946,2.653-2.3,3.939Z" transform="translate(-834.541 -387.25)" fill="#fff"/>
        </g>
        <g id="그룹_45" data-name="그룹 45" transform="translate(707.113 15.365)">
          <path id="패스_83" data-name="패스 83" d="M904.27,375.816a10.98,10.98,0,0,1,6.026,4.668c1.559,2.481,5.509.193,3.94-2.3a15.889,15.889,0,0,0-8.753-6.765c-2.806-.89-4.006,3.514-1.213,4.4Z" transform="translate(-902.683 -371.298)" fill="#fff"/>
        </g>
        <g id="그룹_46" data-name="그룹 46" transform="translate(781.263 1.238)">
          <path id="패스_84" data-name="패스 84" d="M988.972,358.888c5.728,5.781,11.528,13.2,12.254,21.593.251,2.9,4.817,2.93,4.563,0-.841-9.718-6.906-18.072-13.59-24.82-2.07-2.09-5.3,1.137-3.227,3.227Z" transform="translate(-988.306 -354.985)"/>
        </g>
        <g id="그룹_47" data-name="그룹 47" transform="translate(318.188 227.339)">
          <path id="패스_85" data-name="패스 85" d="M455.762,659.816a394.029,394.029,0,0,0,104.583-2.5c34.4-5.483,69.385-15.891,97.679-36.87,2.333-1.73.06-5.692-2.3-3.94-28.016,20.772-62.527,30.982-96.589,36.41a389.825,389.825,0,0,1-103.371,2.338c-2.915-.319-2.892,4.247,0,4.563Z" transform="translate(-453.584 -616.068)"/>
        </g>
        <g id="그룹_48" data-name="그룹 48" transform="translate(283.618 258.39)">
          <path id="패스_86" data-name="패스 86" d="M415.222,656.47c5.5,1.983,11.321,2.831,16.788,4.908,2.749,1.043,3.936-3.366,1.213-4.4-5.467-2.077-11.291-2.924-16.788-4.908-2.768-1-3.959,3.409-1.213,4.4Z" transform="translate(-413.666 -651.923)"/>
        </g>
        <g id="그룹_49" data-name="그룹 49" transform="translate(225.283 227.983)">
          <path id="패스_87" data-name="패스 87" d="M346.3,619.015c0,2.686,2.636,3.549,4.65,4.818a62.3,62.3,0,0,0,8.038,4.459c2.663,1.172,4.988-2.758,2.3-3.94-4.089-1.8-7.767-4.333-11.559-6.668l1.13,1.97v-.639c0-2.936-4.563-2.941-4.563,0Z" transform="translate(-346.304 -616.811)"/>
        </g>
        <path id="패스_88" data-name="패스 88" d="M431.682,501.212c0,1.721-.132,2.28.4,2.813a1.374,1.374,0,0,0,2.337-.968c0-1.72.132-2.279-.4-2.812A1.375,1.375,0,0,0,431.682,501.212Z" transform="translate(-132.459 -373.156)" fill="#fff"/>
        <path id="패스_89" data-name="패스 89" d="M364.938,522.29c0,1.72-.132,2.279.4,2.812a1.374,1.374,0,0,0,2.337-.968c0-1.72.133-2.279-.4-2.812A1.375,1.375,0,0,0,364.938,522.29Z" transform="translate(-123.516 -375.98)" fill="#fff"/>
        <path id="패스_90" data-name="패스 90" d="M502.615,423.127a1.37,1.37,0,0,0,0,2.738A1.37,1.37,0,0,0,502.615,423.127Z" transform="translate(-141.788 -362.877)" fill="#fff"/>
        <path id="패스_91" data-name="패스 91" d="M448.165,486.358a1.37,1.37,0,0,0,0,2.738A1.37,1.37,0,0,0,448.165,486.358Z" transform="translate(-134.493 -371.349)" fill="#fff"/>
        <path id="패스_92" data-name="패스 92" d="M369.126,502.166a1.37,1.37,0,0,0,0,2.738A1.37,1.37,0,0,0,369.126,502.166Z" transform="translate(-123.902 -373.467)" fill="#fff"/>
        <path id="패스_93" data-name="패스 93" d="M397.229,514.461a1.37,1.37,0,0,0,0,2.737A1.37,1.37,0,0,0,397.229,514.461Z" transform="translate(-127.668 -375.115)" fill="#fff"/>
        <path id="패스_94" data-name="패스 94" d="M578.141,451.23a1.37,1.37,0,0,0,0,2.737A1.37,1.37,0,0,0,578.141,451.23Z" transform="translate(-151.908 -366.642)" fill="#fff"/>
        <path id="패스_95" data-name="패스 95" d="M599.218,409.076a1.37,1.37,0,0,0,0,2.737A1.37,1.37,0,0,0,599.218,409.076Z" transform="translate(-154.732 -360.994)" fill="#fff"/>
        <path id="패스_96" data-name="패스 96" d="M471,537.294a1.37,1.37,0,0,0,0,2.738A1.37,1.37,0,0,0,471,537.294Z" transform="translate(-137.552 -378.174)" fill="#fff"/>
        <path id="패스_97" data-name="패스 97" d="M650.154,586.474a1.37,1.37,0,0,0,0,2.738A1.37,1.37,0,0,0,650.154,586.474Z" transform="translate(-161.557 -384.764)" fill="#fff"/>
        <path id="패스_98" data-name="패스 98" d="M558.82,577.692a1.37,1.37,0,0,0,0,2.738A1.37,1.37,0,0,0,558.82,577.692Z" transform="translate(-149.319 -383.587)" fill="#fff"/>
        <path id="패스_99" data-name="패스 99" d="M968.066,370.434a1.37,1.37,0,0,0,0,2.738A1.37,1.37,0,0,0,968.066,370.434Z" transform="translate(-204.154 -355.817)" fill="#fff"/>
        <path id="패스_100" data-name="패스 100" d="M630.833,488.115a1.37,1.37,0,0,0,0,2.737A1.37,1.37,0,0,0,630.833,488.115Z" transform="translate(-158.968 -371.585)" fill="#fff"/>
        <path id="패스_101" data-name="패스 101" d="M644.885,474.063a1.37,1.37,0,0,0,0,2.738A1.37,1.37,0,0,0,644.885,474.063Z" transform="translate(-160.851 -369.702)" fill="#fff"/>
        <path id="패스_102" data-name="패스 102" d="M622.051,647.949a1.37,1.37,0,0,0,0,2.737A1.37,1.37,0,0,0,622.051,647.949Z" transform="translate(-157.791 -393.001)" fill="#fff"/>
        <path id="패스_103" data-name="패스 103" d="M708.116,539.051a1.37,1.37,0,0,0,0,2.737A1.37,1.37,0,0,0,708.116,539.051Z" transform="translate(-169.323 -378.41)" fill="#fff"/>
        <path id="패스_104" data-name="패스 104" d="M409.524,447.717a1.37,1.37,0,0,0,0,2.737A1.37,1.37,0,0,0,409.524,447.717Z" transform="translate(-129.315 -366.172)" fill="#fff"/>
        <path id="패스_105" data-name="패스 105" d="M437.627,438.935a1.37,1.37,0,0,0,0,2.737A1.37,1.37,0,0,0,437.627,438.935Z" transform="translate(-133.081 -364.995)" fill="#fff"/>
        <path id="패스_106" data-name="패스 106" d="M402.5,649.705a1.37,1.37,0,0,0,0,2.738A1.37,1.37,0,0,0,402.5,649.705Z" transform="translate(-128.374 -393.236)" fill="#fff"/>
        <path id="패스_107" data-name="패스 107" d="M386.691,702.4a1.37,1.37,0,0,0,0,2.737A1.37,1.37,0,0,0,386.691,702.4Z" transform="translate(-126.256 -400.296)" fill="#fff"/>
        <path id="패스_108" data-name="패스 108" d="M160.112,540.807a1.37,1.37,0,0,0,0,2.738A1.37,1.37,0,0,0,160.112,540.807Z" transform="translate(-95.897 -378.645)" fill="#fff"/>
        <path id="패스_109" data-name="패스 109" d="M200.51,672.539a1.37,1.37,0,0,0,0,2.737A1.37,1.37,0,0,0,200.51,672.539Z" transform="translate(-101.31 -396.296)" fill="#fff"/>
        <path id="패스_110" data-name="패스 110" d="M121.471,530.269a1.37,1.37,0,0,0,0,2.737A1.37,1.37,0,0,0,121.471,530.269Z" transform="translate(-90.719 -377.233)" fill="#fff"/>
        <path id="패스_111" data-name="패스 111" d="M300.626,691.859a1.37,1.37,0,0,0,0,2.738A1.37,1.37,0,0,0,300.626,691.859Z" transform="translate(-114.724 -398.884)" fill="#fff"/>
        <path id="패스_112" data-name="패스 112" d="M261.985,626.872a1.37,1.37,0,0,0,0,2.737A1.37,1.37,0,0,0,261.985,626.872Z" transform="translate(-109.546 -390.177)" fill="#fff"/>
        <path id="패스_113" data-name="패스 113" d="M283.062,728.744a1.37,1.37,0,0,0,0,2.738A1.37,1.37,0,0,0,283.062,728.744Z" transform="translate(-112.371 -403.826)" fill="#fff"/>
        <path id="패스_114" data-name="패스 114" d="M532.474,790.219a1.37,1.37,0,0,0,0,2.737A1.37,1.37,0,0,0,532.474,790.219Z" transform="translate(-145.789 -412.063)" fill="#fff"/>
        <path id="패스_115" data-name="패스 115" d="M493.832,746.308a1.37,1.37,0,0,0,0,2.738A1.37,1.37,0,0,0,493.832,746.308Z" transform="translate(-140.611 -406.18)" fill="#fff"/>
        <path id="패스_116" data-name="패스 116" d="M420.063,770.9a1.37,1.37,0,0,0,0,2.738A1.37,1.37,0,0,0,420.063,770.9Z" transform="translate(-130.727 -409.475)" fill="#fff"/>
        <path id="패스_117" data-name="패스 117" d="M432.358,742.8a1.369,1.369,0,0,0,0,2.737A1.369,1.369,0,0,0,432.358,742.8Z" transform="translate(-132.375 -405.709)" fill="#fff"/>
        <path id="패스_118" data-name="패스 118" d="M253.2,656.731a1.37,1.37,0,0,0,0,2.738A1.37,1.37,0,0,0,253.2,656.731Z" transform="translate(-108.37 -394.177)" fill="#fff"/>
        <path id="패스_119" data-name="패스 119" d="M509.64,793.732a1.37,1.37,0,0,0,0,2.737A1.37,1.37,0,0,0,509.64,793.732Z" transform="translate(-142.73 -412.534)" fill="#fff"/>
        <path id="패스_120" data-name="패스 120" d="M546.525,786.706a1.37,1.37,0,0,0,0,2.738A1.37,1.37,0,0,0,546.525,786.706Z" transform="translate(-147.672 -411.593)" fill="#fff"/>
        <path id="패스_121" data-name="패스 121" d="M662.449,637.41a1.37,1.37,0,0,0,0,2.738A1.37,1.37,0,0,0,662.449,637.41Z" transform="translate(-163.204 -391.589)" fill="#fff"/>
        <path id="패스_122" data-name="패스 122" d="M801.206,414.345a1.37,1.37,0,0,0,0,2.737A1.37,1.37,0,0,0,801.206,414.345Z" transform="translate(-181.796 -361.7)" fill="#fff"/>
        <path id="패스_123" data-name="패스 123" d="M943.476,366.921a1.37,1.37,0,0,0,0,2.738A1.37,1.37,0,0,0,943.476,366.921Z" transform="translate(-200.859 -355.346)" fill="#fff"/>
        <path id="패스_124" data-name="패스 124" d="M634.346,593.5a1.37,1.37,0,0,0,0,2.737A1.37,1.37,0,0,0,634.346,593.5Z" transform="translate(-159.439 -385.705)" fill="#fff"/>
        <path id="패스_125" data-name="패스 125" d="M474.512,465.281a1.37,1.37,0,0,0,0,2.738A1.37,1.37,0,0,0,474.512,465.281Z" transform="translate(-138.023 -368.525)" fill="#fff"/>
        <path id="패스_126" data-name="패스 126" d="M615.011,724.411c0,.94-.059,1.88.841,2.173a1.329,1.329,0,0,0,1.71-.559,2.785,2.785,0,0,0-.214-2.582A1.381,1.381,0,0,0,615.011,724.411Z" transform="translate(-157.025 -403.063)" fill="#fff"/>
        <path id="패스_127" data-name="패스 127" d="M862.681,660.244a1.37,1.37,0,0,0,0,2.737A1.37,1.37,0,0,0,862.681,660.244Z" transform="translate(-190.033 -394.648)" fill="#fff"/>
        <path id="패스_128" data-name="패스 128" d="M791.124,649.35c0-1.041.03-1.167-.118-1.45a1.362,1.362,0,0,0-2.62.527c0,.941-.059,1.88.842,2.173A1.357,1.357,0,0,0,791.124,649.35Z" transform="translate(-180.255 -392.884)" fill="#fff"/>
        <g id="그룹_54" data-name="그룹 54" transform="translate(437.478 102.666)">
          <g id="그룹_50" data-name="그룹 50">
            <path id="패스_129" data-name="패스 129" d="M768.875,565.218l-23.508,15.2L644.147,679.3c-28.758,35.068-50.176,99.056-50.842,107.658l-1.975,25.525L768.746,596.13l6.316-7.7a218.48,218.48,0,0,0-5.826-23.59C769.115,564.964,769,565.092,768.875,565.218Z" transform="translate(-591.33 -484.531)" fill="#cfd7dc"/>
            <path id="패스_130" data-name="패스 130" d="M868.487,472.528c-8.276,2.329-36.9,43.472-71.725,79.885A218.512,218.512,0,0,1,802.588,576l70.376-85.821C880.813,480.61,878.079,469.828,868.487,472.528Z" transform="translate(-618.856 -472.106)" fill="#3b93b4"/>
          </g>
          <g id="그룹_51" data-name="그룹 51" transform="translate(17.065 226.716)">
            <path id="패스_131" data-name="패스 131" d="M615.513,791.361c2.281-9.164,6.286-18.073,9.821-26.8,3.7-9.128,7.243-18.593,12.015-27.234,1.42-2.573-2.519-4.877-3.94-2.3-4.675,8.467-8.151,17.722-11.8,26.661-3.779,9.261-8.074,18.726-10.5,28.462-.71,2.85,3.69,4.066,4.4,1.213Z" transform="translate(-611.036 -733.899)" fill="#fff"/>
          </g>
          <g id="그룹_52" data-name="그룹 52" transform="translate(47.266 200.784)">
            <path id="패스_132" data-name="패스 132" d="M650.244,716.988a42.041,42.041,0,0,1,8.612-9.265c2.292-1.837-.955-5.047-3.227-3.227a45.906,45.906,0,0,0-9.325,10.189c-1.65,2.439,2.3,4.725,3.94,2.3Z" transform="translate(-645.909 -703.956)" fill="#fff"/>
          </g>
          <g id="그룹_53" data-name="그룹 53" transform="translate(175.596 78.104)">
            <path id="패스_133" data-name="패스 133" d="M794.207,565.1a234.575,234.575,0,0,1,5.827,23.593c.573,2.878,4.973,1.66,4.4-1.213a234.584,234.584,0,0,0-5.827-23.593c-.865-2.8-5.271-1.6-4.4,1.213Z" transform="translate(-794.094 -562.295)"/>
          </g>
          <path id="패스_134" data-name="패스 134" d="M812.2,570.311c0-1.041.03-1.167-.118-1.45a1.362,1.362,0,0,0-2.62.527c0,.941-.059,1.88.841,2.174A1.358,1.358,0,0,0,812.2,570.311Z" transform="translate(-620.557 -484.96)" fill="#fff"/>
          <path id="패스_135" data-name="패스 135" d="M671.687,696.773c0-1.04.031-1.167-.118-1.45a1.362,1.362,0,0,0-2.62.527c0,.941-.059,1.88.842,2.174A1.357,1.357,0,0,0,671.687,696.773Z" transform="translate(-601.73 -501.904)" fill="#fff"/>
          <path id="패스_136" data-name="패스 136" d="M743.7,642.324c0-1.041.03-1.167-.118-1.45a1.363,1.363,0,0,0-2.621.527c0,.941-.058,1.88.842,2.174A1.358,1.358,0,0,0,743.7,642.324Z" transform="translate(-611.379 -494.609)" fill="#fff"/>
          <path id="패스_137" data-name="패스 137" d="M759.509,630.029c0-1.04.03-1.167-.119-1.45a1.362,1.362,0,0,0-2.62.527c0,.941-.059,1.88.842,2.174A1.358,1.358,0,0,0,759.509,630.029Z" transform="translate(-613.497 -492.961)" fill="#fff"/>
        </g>
        <path id="패스_138" data-name="패스 138" d="M544.769,719.962a1.37,1.37,0,0,0,0,2.738A1.37,1.37,0,0,0,544.769,719.962Z" transform="translate(-147.436 -402.65)" fill="#fff"/>
        <path id="패스_139" data-name="패스 139" d="M586.76,734.365a1.369,1.369,0,0,0-2.737,0c0,1.212-.341,3.279,1.368,3.214C587.025,737.506,586.76,735.953,586.76,734.365Z" transform="translate(-152.869 -404.399)" fill="#fff"/>
        <path id="패스_140" data-name="패스 140" d="M351.548,787.642c0,.941-.059,1.88.841,2.174a1.33,1.33,0,0,0,1.71-.56,2.785,2.785,0,0,0-.214-2.582A1.381,1.381,0,0,0,351.548,787.642Z" transform="translate(-121.724 -411.535)" fill="#fff"/>
        <path id="패스_141" data-name="패스 141" d="M281.305,783.193a1.37,1.37,0,0,0,0,2.738A1.37,1.37,0,0,0,281.305,783.193Z" transform="translate(-112.135 -411.122)" fill="#fff"/>
        <path id="패스_142" data-name="패스 142" d="M323.3,797.6a1.369,1.369,0,0,0-2.738,0c0,1.211-.34,3.278,1.369,3.213C323.562,800.737,323.3,799.184,323.3,797.6Z" transform="translate(-117.568 -412.871)" fill="#fff"/>
        <path id="패스_143" data-name="패스 143" d="M370.72,787.058a1.369,1.369,0,0,0-2.737,0c0,1.211-.341,3.278,1.369,3.214C370.985,790.2,370.72,788.645,370.72,787.058Z" transform="translate(-123.922 -411.459)" fill="#fff"/>
        <path id="패스_144" data-name="패스 144" d="M277.63,590.339a1.369,1.369,0,0,0-2.738,0c0,1.211-.34,3.278,1.369,3.214C277.9,593.479,277.63,591.926,277.63,590.339Z" transform="translate(-111.449 -385.101)" fill="#fff"/>
        <path id="패스_145" data-name="패스 145" d="M474.358,788.18a1.369,1.369,0,0,0-1.184,2.469c1.092.524,2.808,1.725,3.489.156C477.3,789.3,475.789,788.867,474.358,788.18Z" transform="translate(-137.917 -411.77)" fill="#fff"/>
        <path id="패스_146" data-name="패스 146" d="M490.166,777.642a1.369,1.369,0,0,0-1.184,2.468c1.092.524,2.808,1.725,3.489.156C493.112,778.762,491.6,778.328,490.166,777.642Z" transform="translate(-140.035 -410.358)" fill="#fff"/>
        <path id="패스_147" data-name="패스 147" d="M546.372,774.129a1.369,1.369,0,0,0-1.185,2.468c1.092.524,2.808,1.726,3.49.156C549.317,775.249,547.8,774.815,546.372,774.129Z" transform="translate(-147.566 -409.888)" fill="#fff"/>
        <path id="패스_148" data-name="패스 148" d="M296.96,731.975a1.369,1.369,0,0,0-1.184,2.468c1.091.524,2.808,1.725,3.489.156C299.906,733.095,298.39,732.661,296.96,731.975Z" transform="translate(-114.147 -404.239)" fill="#fff"/>
        <path id="패스_149" data-name="패스 149" d="M376.685,538.756a1.369,1.369,0,0,0-2.047,1.819c.8.906,1.923,2.677,3.158,1.493C378.969,540.928,377.739,539.943,376.685,538.756Z" transform="translate(-124.769 -378.307)" fill="#fff"/>
      </g>
      <path id="Icon_fa-solid-star" data-name="Icon fa-solid-star" d="M37.745,2.321a4.131,4.131,0,0,0-7.426,0l-8.29,17.057L3.514,22.111a4.126,4.126,0,0,0-2.295,7.014L14.654,42.418,11.482,61.2A4.137,4.137,0,0,0,17.5,65.535L34.045,56.7l16.542,8.832A4.137,4.137,0,0,0,56.607,61.2L53.423,42.418,66.857,29.125a4.126,4.126,0,0,0-2.295-7.014L46.035,19.378Z" transform="matrix(0.998, -0.07, 0.07, 0.998, 8.589, 144.499)" fill="#fb0"/>
      <path id="Icon_fa-solid-star-2" data-name="Icon fa-solid-star" d="M37.745,2.321a4.131,4.131,0,0,0-7.426,0l-8.29,17.057L3.514,22.111a4.126,4.126,0,0,0-2.295,7.014L14.654,42.418,11.482,61.2A4.137,4.137,0,0,0,17.5,65.535L34.045,56.7l16.542,8.832A4.137,4.137,0,0,0,56.607,61.2L53.423,42.418,66.857,29.125a4.126,4.126,0,0,0-2.295-7.014L46.035,19.378Z" transform="matrix(0.998, -0.07, 0.07, 0.998, 107.555, 49.948)" fill="#fb0"/>
      <path id="Icon_fa-solid-star-3" data-name="Icon fa-solid-star" d="M37.745,2.321a4.131,4.131,0,0,0-7.426,0l-8.29,17.057L3.514,22.111a4.126,4.126,0,0,0-2.295,7.014L14.654,42.418,11.482,61.2A4.137,4.137,0,0,0,17.5,65.535L34.045,56.7l16.542,8.832A4.137,4.137,0,0,0,56.607,61.2L53.423,42.418,66.857,29.125a4.126,4.126,0,0,0-2.295-7.014L46.035,19.378Z" transform="matrix(0.998, -0.07, 0.07, 0.998, 242.022, 4.749)" fill="#fb0"/>
      <path id="Icon_fa-solid-star-4" data-name="Icon fa-solid-star" d="M37.745,2.321a4.131,4.131,0,0,0-7.426,0l-8.29,17.057L3.514,22.111a4.126,4.126,0,0,0-2.295,7.014L14.654,42.418,11.482,61.2A4.137,4.137,0,0,0,17.5,65.535L34.045,56.7l16.542,8.832A4.137,4.137,0,0,0,56.607,61.2L53.423,42.418,66.857,29.125a4.126,4.126,0,0,0-2.295-7.014L46.035,19.378Z" transform="matrix(0.998, -0.07, 0.07, 0.998, 380.317, 14.279)" fill="#fb0"/>
      <path id="Icon_fa-solid-star-5" data-name="Icon fa-solid-star" d="M37.745,2.321a4.131,4.131,0,0,0-7.426,0l-8.29,17.057L3.514,22.111a4.126,4.126,0,0,0-2.295,7.014L14.654,42.418,11.482,61.2A4.137,4.137,0,0,0,17.5,65.535L34.045,56.7l16.542,8.832A4.137,4.137,0,0,0,56.607,61.2L53.423,42.418,66.857,29.125a4.126,4.126,0,0,0-2.295-7.014L46.035,19.378Z" transform="matrix(0.998, -0.07, 0.07, 0.998, 514.979, 59.757)" fill="#fb0"/>
      <g id="그룹_59" data-name="그룹 59" transform="matrix(-0.719, 0.695, -0.695, -0.719, 295.466, 171.448)">
        <circle id="타원_1" data-name="타원 1" cx="4.624" cy="4.624" r="4.624" transform="translate(123.924 90.631)" fill="#b7cf94"/>
        <circle id="타원_2" data-name="타원 2" cx="4.624" cy="4.624" r="4.624" transform="translate(13.872 39.767)" fill="#b7cf94"/>
        <circle id="타원_3" data-name="타원 3" cx="4.624" cy="4.624" r="4.624" transform="translate(54.563 36.067)" fill="#b7cf94"/>
        <circle id="타원_4" data-name="타원 4" cx="4.624" cy="4.624" r="4.624" transform="translate(21.27 12.022)" fill="#b7cf94"/>
        <circle id="타원_5" data-name="타원 5" cx="4.624" cy="4.624" r="4.624" transform="translate(0 0)" fill="#b7cf94"/>
      </g>
      <g id="그룹_67" data-name="그룹 67" transform="translate(727.854 351.648)">
        <g id="그룹_63" data-name="그룹 63">
          <g id="그룹_60" data-name="그룹 60" transform="translate(38.454)">
            <path id="패스_154" data-name="패스 154" d="M1259,1417.137a3.7,3.7,0,0,1-2.886-6.009,91.754,91.754,0,0,0,6.886-10.475c6.174-10.366,13.171-22.114,30.889-26.543a3.7,3.7,0,1,1,1.794,7.178c-14.731,3.683-20.364,13.139-26.326,23.151a98.82,98.82,0,0,1-7.465,11.309A3.694,3.694,0,0,1,1259,1417.137Z" transform="translate(-1255.307 -1373.997)" fill="#70ae85"/>
          </g>
          <path id="패스_155" data-name="패스 155" d="M1263.332,1403.838a22.88,22.88,0,0,0-11.75-10.583c-11.41-4.1-31.274,7.523-36.343,24.8-12.023,40.972,50.9,67.409,71.7,30.033,8.755-15.729,3.1-38.038-7.821-43.295A22.872,22.872,0,0,0,1263.332,1403.838Z" transform="translate(-1213.725 -1375.383)" fill="#f2503a"/>
          <g id="그룹_61" data-name="그룹 61" transform="translate(46.065 74.596)">
            <path id="패스_156" data-name="패스 156" d="M1267.642,1462.558a22.011,22.011,0,0,1,5.25-2.413c3.4-1.045,1.951-6.4-1.476-5.351a27.964,27.964,0,0,0-6.575,2.973c-3.025,1.884-.242,6.686,2.8,4.79Z" transform="translate(-1263.536 -1454.658)" fill="#a5480b"/>
          </g>
          <g id="그룹_62" data-name="그룹 62" transform="translate(25.027 50.089)">
            <path id="패스_157" data-name="패스 157" d="M1241.162,1432.322l1.768,2.9a2.775,2.775,0,0,0,4.792-2.8l-1.77-2.9a2.775,2.775,0,1,0-4.791,2.8Z" transform="translate(-1240.788 -1428.158)" fill="#fff"/>
          </g>
          <path id="패스_158" data-name="패스 158" d="M1270.545,1397.968c-3.443,1.289-6.464,2.907-12.844,4.665-10.706,2.95-18.27,3.6-18.419,9.12.818,5.36,8.308,3.52,19.158,2.9,1.6-.09,2.994-.122,4.243-.117.793.965,1.653,2.065,2.593,3.36,6.388,8.792,9.7,15.757,14.37,13,4.181-3.608-.1-9.876-4.589-20.034C1272.383,1404.813,1271.724,1401.45,1270.545,1397.968Z" transform="translate(-1215.647 -1375.8)" fill="#70ae85"/>
          <path id="패스_159" data-name="패스 159" d="M1246.977,1444.369a1.383,1.383,0,0,0,0,2.765A1.383,1.383,0,0,0,1246.977,1444.369Z" transform="translate(-1216.125 -1379.289)" fill="#fff"/>
          <path id="패스_160" data-name="패스 160" d="M1238.67,1441.046a1.384,1.384,0,0,0,0,2.766A1.384,1.384,0,0,0,1238.67,1441.046Z" transform="translate(-1215.501 -1379.039)" fill="#fff"/>
          <path id="패스_161" data-name="패스 161" d="M1283.525,1446.03a1.383,1.383,0,0,0,0,2.765A1.383,1.383,0,0,0,1283.525,1446.03Z" transform="translate(-1218.874 -1379.414)" fill="#fff"/>
          <path id="패스_162" data-name="패스 162" d="M1238.67,1421.111a1.383,1.383,0,0,0,0,2.765A1.383,1.383,0,0,0,1238.67,1421.111Z" transform="translate(-1215.501 -1377.54)" fill="#fff"/>
        </g>
        <g id="그룹_66" data-name="그룹 66" transform="translate(94.309 49.679)">
          <g id="그룹_64" data-name="그룹 64" transform="translate(16.455)">
            <path id="패스_163" data-name="패스 163" d="M1354.725,1482.878a3.7,3.7,0,0,1-3.34-2.1,91.6,91.6,0,0,0-6.437-10.754c-6.648-10.067-14.186-21.477-10.469-39.358a3.7,3.7,0,1,1,7.242,1.506c-3.088,14.865,2.977,24.05,9.4,33.774a98.8,98.8,0,0,1,6.938,11.64,3.7,3.7,0,0,1-3.335,5.3Z" transform="translate(-1333.496 -1427.716)" fill="#70ae85"/>
          </g>
          <path id="패스_164" data-name="패스 164" d="M1341.71,1468.5a16.914,16.914,0,0,0-11.458-2.323c-8.805,1.677-17.086,16.541-13.823,29.443,7.739,30.605,57.734,23.8,56.936-7.817-.336-13.3-12.315-25.386-21.247-24.628A16.909,16.909,0,0,0,1341.71,1468.5Z" transform="translate(-1315.703 -1430.38)" fill="#f2503a"/>
          <g id="그룹_65" data-name="그룹 65" transform="translate(27.792 65.256)">
            <path id="패스_165" data-name="패스 165" d="M1348.531,1504.17l3.378-.333a2.837,2.837,0,0,0,2.774-2.774c-.062-1.381-1.228-2.927-2.774-2.774l-3.378.333a2.837,2.837,0,0,0-2.774,2.774c.062,1.381,1.228,2.927,2.774,2.774Z" transform="translate(-1345.754 -1498.278)" fill="#fff"/>
          </g>
          <path id="패스_166" data-name="패스 166" d="M1339.03,1456.935c-1.739,3.24-2.944,6.447-6.581,11.975-6.1,9.278-11.362,14.753-7.834,19,4.149,3.49,8.567-2.832,16.319-10.448,1.141-1.122,2.17-2.066,3.113-2.885,1.232.2,2.6.463,4.165.816,10.6,2.4,17.683,5.45,19.375.3.765-5.469-6.588-7.359-16.66-12.037C1344.925,1460.869,1342.212,1458.775,1339.03,1456.935Z" transform="translate(-1316.287 -1429.913)" fill="#70ae85"/>
          <path id="패스_167" data-name="패스 167" d="M1362.088,1500.364a1.384,1.384,0,0,0,2.49,1.2A1.384,1.384,0,0,0,1362.088,1500.364Z" transform="translate(-1319.18 -1433.122)" fill="#fff"/>
          <path id="패스_168" data-name="패스 168" d="M1377.477,1484.174a1.384,1.384,0,0,0,2.49,1.2A1.384,1.384,0,0,0,1377.477,1484.174Z" transform="translate(-1320.337 -1431.905)" fill="#fff"/>
          <path id="패스_169" data-name="패스 169" d="M1361.532,1491.729a1.384,1.384,0,0,0,2.491,1.2A1.384,1.384,0,0,0,1361.532,1491.729Z" transform="translate(-1319.138 -1432.473)" fill="#fff"/>
        </g>
      </g>
      <g id="그룹_105" data-name="그룹 105" transform="translate(656.37 29.652)">
        <g id="그룹_100" data-name="그룹 100" transform="translate(28.284)">
          <path id="패스_223" data-name="패스 223" d="M3968.992,1296.442c-.786.6-2.65-1.413-3.5-3.769-.951,4.324-3.291,6.787-6.639,7.05-.637.05-1.715-1.179-2.33-2.635-1.516,3.633-5.074,3.921-8.752,3.573a3.617,3.617,0,0,1-2.619-1.333c-1.01-1.107-2.018-3.491-1.509-3.915-2.04,2.177-5.064,2.685-8.715,1.463a2.585,2.585,0,0,1-1.55-1.344,5.674,5.674,0,0,1-.739-1.926,2.021,2.021,0,0,1,.583-2.01,18.508,18.508,0,0,1,4.9-3.694,1.462,1.462,0,0,1-.171.247c-1.1,1.285-4.459-4.376-3.4-5.735a9.122,9.122,0,0,1,5.784-3.529,2.55,2.55,0,0,1-.455-2.753,10.544,10.544,0,0,1,9.779-4.2c-.256-3.345,1.172-4.723,3.011-4.957s4.1.49,6.049.494c2.307,0,4.147-1,6.386-1.153s5.042.676,8.247,3.856C3977.564,1274.848,3976.457,1290.781,3968.992,1296.442Z" transform="translate(-3932.591 -1266.3)" fill="#b7cf94"/>
          <g id="그룹_99" data-name="그룹 99" transform="translate(20.117 4.026)">
            <path id="패스_224" data-name="패스 224" d="M3997.212,1275.3a165.6,165.6,0,0,0-19.755,11.276c-1.455.968-.09,3.333,1.377,2.356a165.656,165.656,0,0,1,19.756-11.276c1.58-.764.2-3.117-1.377-2.356Z" transform="translate(-3976.835 -1275.154)"/>
          </g>
        </g>
        <g id="그룹_104" data-name="그룹 104" transform="translate(0 71.773)">
          <path id="패스_225" data-name="패스 225" d="M3880.023,1479.763c7.426.556,9.932-3,10.176-4.986.351-2.857-4.34-6.838-9.581-7.1s-10.3,3.242-10.231,6.119C3870.434,1475.8,3872.577,1479.586,3880.023,1479.763Z" transform="translate(-3870.385 -1447.881)" fill="#2b9582"/>
          <g id="그룹_103" data-name="그룹 103" transform="translate(33.854 0)">
            <path id="패스_226" data-name="패스 226" d="M3955.112,1438.866c8.771,2.309,12.562-1.4,13.291-3.72,1.053-3.344-3.684-9.15-9.9-10.619s-13.053,1.6-13.608,5.065C3944.505,1431.992,3946.234,1437.006,3955.112,1438.866Z" transform="translate(-3944.841 -1424.15)" fill="#2b9582"/>
            <g id="그룹_101" data-name="그룹 101" transform="translate(7.575 2.081)">
              <path id="패스_227" data-name="패스 227" d="M3962.181,1431.256l8.19,4.381c1.548.828,2.927-1.526,1.377-2.356l-8.19-4.38c-1.548-.828-2.927,1.526-1.377,2.355Z" transform="translate(-3961.501 -1428.727)" fill="#fff"/>
            </g>
            <g id="그룹_102" data-name="그룹 102" transform="translate(5.31 7.464)">
              <path id="패스_228" data-name="패스 228" d="M3957.885,1443.366l.768-.069a1.364,1.364,0,0,0,0-2.728l-.768.069a1.364,1.364,0,1,0,0,2.728Z" transform="translate(-3956.519 -1440.565)" fill="#fff"/>
            </g>
          </g>
        </g>
      </g>
    </g>
  </g>
</svg>
